<svg xmlns:serif="http://www.serif.com/" xmlns="http://www.w3.org/2000/svg" xmlns:xlink="http://www.w3.org/1999/xlink" id="Layer_1" x="0px" y="0px" viewBox="0 0 595.3 841.9" style="enable-background:new 0 0 595.3 841.9;" xml:space="preserve"><style type="text/css">	.st0{fill-rule:evenodd;clip-rule:evenodd;fill:#3B4FE4;}	.st1{fill:#FFFFFF;}</style><rect x="336.2" y="391" class="st0" width="16" height="16"></rect><g>	<path class="st1" d="M19.4,435.6h21.8v8.4H5.7v-5.8L27.4,407H5.5v-8.5h35.3v5.6L19.4,435.6z"></path>	<path class="st1" d="M61.3,444.6c-5.2,0-9.4-1.5-12.6-4.6c-3.2-3.1-4.8-7.1-4.8-12.1V427c0-3.5,0.6-6.5,1.9-9.2  c1.3-2.6,3.2-4.7,5.6-6.1c2.5-1.4,5.4-2.2,8.8-2.2c4.8,0,8.5,1.5,11.2,4.4c2.8,2.9,4.1,7.1,4.1,12.3v4.1H54.6  c0.4,1.9,1.2,3.4,2.5,4.5c1.3,1.1,2.9,1.6,4.9,1.6c3.3,0,5.9-1.2,7.8-3.5l4.8,5.7c-1.3,1.8-3.2,3.3-5.6,4.3  C66.6,444.1,64.1,444.6,61.3,444.6z M60.1,417.7c-3.1,0-4.9,2-5.5,6.1h10.6V423c0-1.7-0.4-3-1.3-3.9  C63,418.2,61.8,417.7,60.1,417.7z"></path>	<path class="st1" d="M93.4,431.4l-3,3v9.6H79.9v-48h10.5v25.5l1.1-1.4l7.9-9.9H112l-11.8,13.9l12.6,19.9h-12.1L93.4,431.4z"></path>	<path class="st1" d="M125.9,444h-10.6v-48h10.6V444z"></path>	<path class="st1" d="M151.4,444c-0.4-0.7-0.7-1.7-1-3c-1.9,2.4-4.6,3.7-8.1,3.7c-3.2,0-5.9-1-8.1-2.9c-2.2-1.9-3.3-4.3-3.3-7.3  c0-3.7,1.4-6.4,4.1-8.3c2.7-1.9,6.6-2.8,11.8-2.8h3.2v-1.8c0-3.1-1.3-4.7-4-4.7c-2.5,0-3.8,1.2-3.8,3.7h-10.5c0-3.3,1.4-5.9,4.2-8  s6.3-3.1,10.6-3.1s7.7,1.1,10.2,3.2c2.5,2.1,3.8,5,3.8,8.7v15c0,3.1,0.5,5.5,1.4,7.1v0.5H151.4z M144.8,437.1  c1.3,0,2.4-0.3,3.3-0.8c0.9-0.6,1.5-1.2,1.9-1.9V429h-3.1c-3.7,0-5.5,1.6-5.5,4.9c0,1,0.3,1.7,1,2.3  C143,436.8,143.8,437.1,144.8,437.1z"></path>	<path class="st1" d="M178.6,401.8v8.4h5.6v7.3h-5.6V433c0,1.3,0.2,2.2,0.7,2.7c0.5,0.5,1.4,0.8,2.7,0.8c1,0,1.9-0.1,2.6-0.2v7.5  c-1.9,0.6-3.9,0.9-5.9,0.9c-3.6,0-6.3-0.9-8-2.6c-1.7-1.7-2.6-4.3-2.6-7.8v-16.8h-4.3v-7.3h4.3v-8.4H178.6z"></path>	<path class="st1" d="M238.6,407h-13.7v37h-11v-37h-13.4v-8.5h38V407z"></path>	<path class="st1" d="M256.3,444.6c-5.2,0-9.4-1.5-12.6-4.6c-3.2-3.1-4.8-7.1-4.8-12.1V427c0-3.5,0.6-6.5,1.9-9.2  c1.3-2.6,3.2-4.7,5.6-6.1c2.5-1.4,5.4-2.2,8.8-2.2c4.8,0,8.5,1.5,11.2,4.4c2.8,2.9,4.1,7.1,4.1,12.3v4.1h-20.9  c0.4,1.9,1.2,3.4,2.5,4.5c1.3,1.1,2.9,1.6,4.9,1.6c3.3,0,5.9-1.2,7.8-3.5l4.8,5.7c-1.3,1.8-3.2,3.3-5.6,4.3  C261.6,444.1,259.1,444.6,256.3,444.6z M255.1,417.7c-3.1,0-4.9,2-5.5,6.1h10.6V423c0-1.7-0.4-3-1.3-3.9  C258,418.2,256.8,417.7,255.1,417.7z"></path>	<path class="st1" d="M289.1,436.5c1.5,0,2.6-0.4,3.4-1.2s1.2-1.9,1.2-3.4h9.9c0,3.7-1.3,6.8-4,9.1c-2.7,2.4-6.1,3.6-10.3,3.6  c-4.9,0-8.8-1.5-11.6-4.6c-2.8-3.1-4.2-7.4-4.2-12.8v-0.4c0-3.4,0.6-6.4,1.9-9c1.3-2.6,3.1-4.6,5.5-6s5.2-2.1,8.4-2.1  c4.4,0,7.9,1.2,10.5,3.7c2.6,2.4,3.9,5.7,3.9,9.9h-9.9c0-1.8-0.4-3.1-1.3-4c-0.9-0.9-2-1.4-3.4-1.4c-2.7,0-4.3,1.7-4.8,5.2  c-0.1,1.1-0.2,2.6-0.2,4.6c0,3.4,0.4,5.8,1.2,7.1S287.3,436.5,289.1,436.5z"></path>	<path class="st1" d="M318.3,413.8c2.2-2.8,5.1-4.2,8.6-4.2c3.7,0,6.5,1.1,8.4,3.3c1.9,2.2,2.9,5.5,2.9,9.8V444h-10.6v-21.1  c0-1.8-0.4-3.1-1.1-4c-0.7-0.8-2-1.3-3.7-1.3c-2.2,0-3.7,0.7-4.6,2.1V444h-10.5v-48h10.5V413.8z"></path></g></svg>