<?xml version="1.0" encoding="utf-8"?>
<!-- Generator: Adobe Illustrator 24.3.0, SVG Export Plug-In . SVG Version: 6.00 Build 0)  -->
<svg version="1.1" id="Layer_1" xmlns:serif="http://www.serif.com/"
	 xmlns="http://www.w3.org/2000/svg" xmlns:xlink="http://www.w3.org/1999/xlink" x="0px" y="0px" viewBox="0 0 595.3 104.8"
	 style="enable-background:new 0 0 595.3 104.8;" xml:space="preserve">
<style type="text/css">
	.st0{fill-rule:evenodd;clip-rule:evenodd;fill:#3B4FE4;}
	.st1{fill:#FFFFFF;}
</style>
<rect x="567.2" y="4.2" class="st0" width="28.1" height="28.1"/>
<g>
	<path class="st1" d="M32.7,82.1h38.2v14.8H8.6V86.7l38.1-54.9H8.4V17h62.1v9.9L32.7,82.1z"/>
	<path class="st1" d="M106.3,98c-9.1,0-16.5-2.7-22.1-8.1c-5.6-5.4-8.4-12.5-8.4-21.2v-1.5c0-6.1,1.1-11.4,3.4-16.1
		c2.2-4.6,5.5-8.2,9.8-10.8c4.3-2.5,9.4-3.8,15.4-3.8c8.3,0,14.9,2.6,19.8,7.8c4.8,5.2,7.2,12.4,7.2,21.6V73H94.5
		c0.7,3.3,2.1,5.9,4.3,7.8c2.2,1.9,5.1,2.9,8.7,2.9c5.9,0,10.4-2,13.7-6.1l8.4,10c-2.3,3.2-5.6,5.7-9.8,7.6
		C115.7,97,111.2,98,106.3,98z M104.2,50.7c-5.4,0-8.6,3.6-9.7,10.8h18.7V60c0.1-3-0.7-5.3-2.2-6.9
		C109.4,51.5,107.1,50.7,104.2,50.7z"/>
	<path class="st1" d="M162.6,74.8l-5.2,5.2v16.9h-18.5V12.5h18.5v44.8l1.9-2.5l13.9-17.3h22.2l-20.8,24.4l22.2,35h-21.2L162.6,74.8z
		"/>
	<path class="st1" d="M219.7,96.9h-18.5V12.6h18.5V96.9z"/>
	<path class="st1" d="M264.5,96.9c-0.7-1.2-1.2-3-1.8-5.3c-3.4,4.3-8.2,6.4-14.3,6.4c-5.6,0-10.4-1.7-14.3-5.1
		c-3.9-3.4-5.9-7.6-5.9-12.8c0-6.4,2.4-11.3,7.1-14.6c4.8-3.3,11.7-4.9,20.7-4.9h5.7v-3.1c0-5.5-2.4-8.2-7.1-8.2
		c-4.4,0-6.6,2.2-6.6,6.5h-18.5c0-5.7,2.4-10.4,7.3-14s11.1-5.4,18.7-5.4c7.6,0,13.6,1.8,17.9,5.5c4.4,3.7,6.6,8.8,6.7,15.2v26.3
		c0.1,5.5,0.9,9.6,2.5,12.5v0.9H264.5z M253,84.8c2.3,0,4.2-0.5,5.7-1.5c1.5-1,2.6-2.1,3.3-3.3v-9.5h-5.4c-6.4,0-9.7,2.9-9.7,8.7
		c0,1.7,0.6,3,1.7,4.1C249.8,84.3,251.2,84.8,253,84.8z"/>
	<path class="st1" d="M312.3,22.7v14.8h9.8v12.8h-9.8v27.2c0,2.2,0.4,3.8,1.2,4.7c0.8,0.9,2.4,1.3,4.8,1.3c1.8,0,3.4-0.1,4.6-0.3
		v13.2c-3.3,1.1-6.8,1.6-10.4,1.6c-6.4,0-11.1-1.5-14.1-4.5c-3-3-4.6-7.6-4.6-13.7V50.3h-7.6V37.5h7.6V22.7H312.3z"/>
	<path class="st1" d="M392.9,31.8h-24v65h-19.3v-65h-23.5V17h66.8V31.8z"/>
	<path class="st1" d="M424,98c-9.1,0-16.5-2.7-22.1-8.1c-5.6-5.4-8.5-12.5-8.5-21.2v-1.5c0-6.1,1.1-11.4,3.4-16.1
		c2.2-4.6,5.5-8.2,9.8-10.8c4.3-2.5,9.4-3.8,15.4-3.8c8.3,0,14.9,2.6,19.8,7.8c4.8,5.2,7.2,12.4,7.2,21.6V73h-36.8
		c0.7,3.3,2.1,5.9,4.3,7.8c2.2,1.9,5.1,2.9,8.7,2.9c5.9,0,10.4-2,13.7-6.1l8.5,10c-2.3,3.2-5.6,5.7-9.8,7.6
		C433.4,97,428.8,98,424,98z M421.9,50.7c-5.4,0-8.6,3.6-9.7,10.8h18.7V60c0.1-3-0.7-5.3-2.2-6.9C427.1,51.5,424.8,50.7,421.9,50.7z
		"/>
	<path class="st1" d="M481.5,83.7c2.6,0,4.6-0.7,6-2.1c1.4-1.4,2.1-3.4,2.1-5.9H507c0,6.5-2.3,11.9-7,16S489.3,98,482,98
		c-8.6,0-15.4-2.7-20.4-8.1c-5-5.4-7.5-12.9-7.5-22.5v-0.8c0-6,1.1-11.3,3.3-15.9c2.2-4.6,5.4-8.1,9.6-10.6s9.1-3.7,14.8-3.7
		c7.7,0,13.8,2.1,18.4,6.4c4.5,4.3,6.8,10.1,6.8,17.4h-17.3c0-3.1-0.8-5.4-2.2-7.1s-3.5-2.5-6-2.5c-4.8,0-7.6,3.1-8.4,9.2
		c-0.3,1.9-0.4,4.6-0.4,8c0,6,0.7,10.1,2.1,12.4C476.2,82.5,478.4,83.7,481.5,83.7z"/>
	<path class="st1" d="M532.9,43.9c4-5,9-7.5,15.1-7.5c6.5,0,11.5,1.9,14.8,5.8c3.3,3.9,5,9.6,5.1,17.2v37.5h-18.5v-37
		c0-3.1-0.6-5.5-1.9-6.9c-1.3-1.5-3.5-2.2-6.5-2.2c-3.8,0-6.5,1.2-8.1,3.6v42.6h-18.5V12.6h18.5V43.9z"/>
</g>
</svg>
